<?xml version="1.0" standalone="no"?><!DOCTYPE svg PUBLIC "-//W3C//DTD SVG 1.1//EN" "http://www.w3.org/Graphics/SVG/1.1/DTD/svg11.dtd"><svg t="1780732660443" class="icon" viewBox="0 0 1024 1024" version="1.1" xmlns="http://www.w3.org/2000/svg" p-id="20829" xmlns:xlink="http://www.w3.org/1999/xlink" width="64" height="64"><path d="M915.6352 186.0352c-9.3952-25.0368-31.3088-43.8016-59.4688-43.8016H170.9568c-28.16 0-53.1968 18.7648-62.592 46.9248L20.7616 548.9664H1003.264L915.6352 186.0352zM11.3664 611.5584v219.008c0 34.432 28.16 62.592 62.592 62.592H950.016c34.432 0 62.592-28.16 62.592-62.592V611.584H11.3664z" fill="#FFDBB2" p-id="20830"></path><path d="M915.9168 807.8336h-204.8a25.6 25.6 0 0 1-25.6-25.6v-51.2a25.6 25.6 0 0 1 25.6-25.6h204.8a25.6 25.6 0 0 1 25.6 25.6v51.2a25.6 25.6 0 0 1-25.6 25.6z" fill="#FF8A00" p-id="20831"></path></svg>